<?xml version="1.0" encoding="iso-8859-1"?>
<!-- Generator: Adobe Illustrator 19.0.0, SVG Export Plug-In . SVG Version: 6.00 Build 0)  -->
<svg version="1.1" id="Capa_1" xmlns="http://www.w3.org/2000/svg" xmlns:xlink="http://www.w3.org/1999/xlink" x="0px" y="0px"
	 viewBox="0 0 511.999 511.999" style="enable-background:new 0 0 511.999 511.999;" xml:space="preserve">
<g>
	<g>
		<path d="M500.047,343.814l-88.038-88.038c-7.266-7.265-16.925-11.271-27.2-11.279c-0.438,0-0.878-0.001-1.316-0.001v-21.11
			c5.021-2.428,8.5-7.558,8.5-13.498v-60c0-8.271-6.729-15-15-15h-75.414v-40.66c0-9.941-5.14-18.845-13.75-23.815
			c-8.609-4.971-18.891-4.971-27.5,0l-50.291,29.036c-9.02-3.638-19.052-3.645-28.083,0l-50.291-29.036
			c-8.608-4.971-18.89-4.973-27.5,0c-8.609,4.971-13.75,13.874-13.75,23.815v40.659H15c-8.271,0-15,6.729-15,15v60
			c0,8.271,6.729,15,15,15h135.996v195H31c-4.13-0.01-7.49-3.37-7.5-7.5v-165c0-4.13-3.36-7.5-7.5-7.5c-4.13,0-7.49,3.359-7.5,7.479
			c0,0.011,0,0.011,0,0.021v165c0,6.01,2.34,11.66,6.59,15.91s9.9,6.59,15.91,6.59h122.025c2.598,4.476,7.433,7.5,12.971,7.5h60
			c5.538,0,10.372-3.024,12.971-7.5h122.025c12.406,0,22.5-10.094,22.5-22.5v-6.029l27.005,27.004
			c7.709,7.708,17.958,11.954,28.859,11.954s21.15-4.246,28.859-11.954l31.831-31.831c7.708-7.709,11.953-17.957,11.953-28.858
			C512,361.771,507.755,351.523,500.047,343.814z M376.992,149.886v60H240.996v-60H376.992z M368.492,224.886v19.589
			c-8.734-0.011-16.563-0.024-21.667-0.012c-6.147,0.014-12.125,1.699-17.465,4.836c-4.416-7.444-7.216-15.727-8.245-24.413H368.492
			z M185.208,114.469c6.878-3.784,15.09-3.564,21.585,0.002c5.152,2.828,8.911,7.492,10.642,12.915H174.58
			C176.333,121.985,180.11,117.273,185.208,114.469z M150.996,209.886H15v-60h135.996V209.886z M160.811,121.243l-29.147-16.828
			c-3.587-2.072-8.174-0.843-10.245,2.745c-2.071,3.587-0.842,8.174,2.745,10.245l29.23,16.876c-0.128,0.199-0.25,0.401-0.369,0.606
			h-47.611V94.227c0-4.519,2.337-8.565,6.25-10.825c3.914-2.26,8.586-2.26,12.5,0l44.17,25.502
			C165.037,112.498,162.489,116.687,160.811,121.243z M225.996,142.386v67.5H187.99c-4.131,0-7.5,3.359-7.5,7.5
			c0,4.14,3.369,7.5,7.5,7.5h38.006v202.5h-60l0.004-285h59.979C225.985,142.386,225.99,142.386,225.996,142.386
			C225.996,142.386,225.996,142.386,225.996,142.386z M238.966,134.886c-0.119-0.205-0.24-0.407-0.369-0.606l29.231-16.876
			c3.587-2.071,4.816-6.658,2.745-10.245c-2.071-3.588-6.658-4.816-10.245-2.745l-29.162,16.837
			c-1.682-4.558-4.229-8.753-7.513-12.344l44.175-25.505c3.914-2.26,8.588-2.26,12.5,0c3.914,2.26,6.25,6.307,6.25,10.825v40.659
			H238.966z M360.992,419.887H240.996v-195h65.019c1.184,12.443,5.32,24.254,12.044,34.633c-4.467,6.079-6.894,13.228-6.912,20.621
			c0,0.001,0.032,0.001,0.032,0.002c-0.019,8.33-0.01,24.427,0,37.981c0.009,10.274,4.015,19.935,11.279,27.201l46.033,46.033
			v21.029h0.001C368.492,416.522,365.128,419.887,360.992,419.887z M489.439,390.924l-31.831,31.831
			c-4.875,4.876-11.357,7.562-18.252,7.562s-13.377-2.686-18.252-7.562L381.3,382.951c-0.003-0.002-0.006-0.005-0.008-0.008
			l-48.225-48.224c-4.436-4.437-6.914-10.334-6.919-16.606c-0.01-13.602-0.019-29.629,0-37.935c0.007-2.833,0.675-5.62,1.901-8.225
			c0.126,0.127,0.242,0.261,0.369,0.387l9.731,9.731c1.465,1.464,3.385,2.196,5.304,2.196c1.919,0,3.839-0.732,5.304-2.196
			c2.929-2.93,2.929-7.678,0-10.607l-9.731-9.731c-0.124-0.124-0.239-0.255-0.362-0.38c2.598-1.218,5.375-1.882,8.197-1.888
			c7.437-0.019,27.901,0.025,37.938,0.032c6.272,0.005,12.169,2.451,16.604,6.887l88.038,88.038
			c4.875,4.875,7.561,11.356,7.561,18.252C497,379.568,494.314,386.049,489.439,390.924z"/>
	</g>
</g>
<g>
</g>
<g>
</g>
<g>
</g>
<g>
</g>
<g>
</g>
<g>
</g>
<g>
</g>
<g>
</g>
<g>
</g>
<g>
</g>
<g>
</g>
<g>
</g>
<g>
</g>
<g>
</g>
<g>
</g>
</svg>
